<mxfile host="app.diagrams.net" modified="2024-03-31T16:17:15.586Z" agent="Mozilla/5.0 (Windows NT 10.0; Win64; x64; rv:124.0) Gecko/20100101 Firefox/124.0" etag="JcfGLJzEKjuofRnnpEI5" version="24.2.1" type="device">
  <diagram id="C5RBs43oDa-KdzZeNtuy" name="Page-1">
    <mxGraphModel dx="1050" dy="626" grid="1" gridSize="10" guides="1" tooltips="1" connect="1" arrows="1" fold="1" page="1" pageScale="1" pageWidth="827" pageHeight="1169" math="0" shadow="0">
      <root>
        <mxCell id="WIyWlLk6GJQsqaUBKTNV-0" />
        <mxCell id="WIyWlLk6GJQsqaUBKTNV-1" parent="WIyWlLk6GJQsqaUBKTNV-0" />
        <mxCell id="Pkjg8kuU6nvulzSkaxBV-1" value="" style="edgeStyle=orthogonalEdgeStyle;rounded=0;orthogonalLoop=1;jettySize=auto;html=1;" parent="WIyWlLk6GJQsqaUBKTNV-1" source="WIyWlLk6GJQsqaUBKTNV-3" target="Pkjg8kuU6nvulzSkaxBV-0" edge="1">
          <mxGeometry relative="1" as="geometry" />
        </mxCell>
        <mxCell id="WIyWlLk6GJQsqaUBKTNV-3" value="add" style="rounded=1;whiteSpace=wrap;html=1;fontSize=12;glass=0;strokeWidth=1;shadow=0;" parent="WIyWlLk6GJQsqaUBKTNV-1" vertex="1">
          <mxGeometry x="40" y="80" width="120" height="40" as="geometry" />
        </mxCell>
        <mxCell id="Pkjg8kuU6nvulzSkaxBV-4" value="" style="edgeStyle=orthogonalEdgeStyle;rounded=0;orthogonalLoop=1;jettySize=auto;html=1;" parent="WIyWlLk6GJQsqaUBKTNV-1" source="Pkjg8kuU6nvulzSkaxBV-0" target="Pkjg8kuU6nvulzSkaxBV-3" edge="1">
          <mxGeometry relative="1" as="geometry" />
        </mxCell>
        <mxCell id="yAVHmVneyYCJ0WxKpsHi-20" value="" style="edgeStyle=orthogonalEdgeStyle;rounded=0;orthogonalLoop=1;jettySize=auto;html=1;" edge="1" parent="WIyWlLk6GJQsqaUBKTNV-1" source="Pkjg8kuU6nvulzSkaxBV-0" target="yAVHmVneyYCJ0WxKpsHi-19">
          <mxGeometry relative="1" as="geometry" />
        </mxCell>
        <mxCell id="Pkjg8kuU6nvulzSkaxBV-0" value="&lt;div&gt;PVC initialized?&lt;/div&gt;&lt;div&gt;&lt;br&gt;&lt;/div&gt;" style="rhombus;whiteSpace=wrap;html=1;rounded=1;glass=0;strokeWidth=1;shadow=0;" parent="WIyWlLk6GJQsqaUBKTNV-1" vertex="1">
          <mxGeometry x="40" y="190" width="120" height="80" as="geometry" />
        </mxCell>
        <mxCell id="Pkjg8kuU6nvulzSkaxBV-3" value="PVCNotInitialized error" style="whiteSpace=wrap;html=1;rounded=1;glass=0;strokeWidth=1;shadow=0;" parent="WIyWlLk6GJQsqaUBKTNV-1" vertex="1">
          <mxGeometry x="240" y="200" width="120" height="60" as="geometry" />
        </mxCell>
        <mxCell id="Pkjg8kuU6nvulzSkaxBV-5" value="No" style="text;html=1;align=center;verticalAlign=middle;resizable=0;points=[];autosize=1;strokeColor=none;fillColor=none;" parent="WIyWlLk6GJQsqaUBKTNV-1" vertex="1">
          <mxGeometry x="180" y="188" width="40" height="30" as="geometry" />
        </mxCell>
        <mxCell id="Pkjg8kuU6nvulzSkaxBV-25" value="" style="edgeStyle=orthogonalEdgeStyle;rounded=0;orthogonalLoop=1;jettySize=auto;html=1;" parent="WIyWlLk6GJQsqaUBKTNV-1" source="Pkjg8kuU6nvulzSkaxBV-6" target="Pkjg8kuU6nvulzSkaxBV-24" edge="1">
          <mxGeometry relative="1" as="geometry" />
        </mxCell>
        <mxCell id="Pkjg8kuU6nvulzSkaxBV-6" value="Add file paths from status lockfile to staging lockfile" style="whiteSpace=wrap;html=1;rounded=1;glass=0;strokeWidth=1;shadow=0;" parent="WIyWlLk6GJQsqaUBKTNV-1" vertex="1">
          <mxGeometry x="40" y="510" width="120" height="60" as="geometry" />
        </mxCell>
        <mxCell id="Pkjg8kuU6nvulzSkaxBV-9" value="&lt;div&gt;delete files from status, that has been added to staging area&lt;/div&gt;&lt;div&gt;&lt;br&gt;&lt;/div&gt;" style="whiteSpace=wrap;html=1;rounded=1;glass=0;strokeWidth=1;shadow=0;" parent="WIyWlLk6GJQsqaUBKTNV-1" vertex="1">
          <mxGeometry x="40" y="1050" width="120" height="80" as="geometry" />
        </mxCell>
        <mxCell id="Pkjg8kuU6nvulzSkaxBV-13" value="" style="edgeStyle=orthogonalEdgeStyle;rounded=0;orthogonalLoop=1;jettySize=auto;html=1;" parent="WIyWlLk6GJQsqaUBKTNV-1" source="Pkjg8kuU6nvulzSkaxBV-14" target="Pkjg8kuU6nvulzSkaxBV-17" edge="1">
          <mxGeometry relative="1" as="geometry" />
        </mxCell>
        <mxCell id="Pkjg8kuU6nvulzSkaxBV-14" value="restore" style="rounded=1;whiteSpace=wrap;html=1;fontSize=12;glass=0;strokeWidth=1;shadow=0;" parent="WIyWlLk6GJQsqaUBKTNV-1" vertex="1">
          <mxGeometry x="450" y="80" width="120" height="40" as="geometry" />
        </mxCell>
        <mxCell id="Pkjg8kuU6nvulzSkaxBV-15" value="" style="edgeStyle=orthogonalEdgeStyle;rounded=0;orthogonalLoop=1;jettySize=auto;html=1;" parent="WIyWlLk6GJQsqaUBKTNV-1" source="Pkjg8kuU6nvulzSkaxBV-17" target="Pkjg8kuU6nvulzSkaxBV-18" edge="1">
          <mxGeometry relative="1" as="geometry" />
        </mxCell>
        <mxCell id="yAVHmVneyYCJ0WxKpsHi-28" value="" style="edgeStyle=orthogonalEdgeStyle;rounded=0;orthogonalLoop=1;jettySize=auto;html=1;" edge="1" parent="WIyWlLk6GJQsqaUBKTNV-1" source="Pkjg8kuU6nvulzSkaxBV-17" target="yAVHmVneyYCJ0WxKpsHi-27">
          <mxGeometry relative="1" as="geometry" />
        </mxCell>
        <mxCell id="Pkjg8kuU6nvulzSkaxBV-17" value="&lt;div&gt;PVC initialized?&lt;/div&gt;&lt;div&gt;&lt;br&gt;&lt;/div&gt;" style="rhombus;whiteSpace=wrap;html=1;rounded=1;glass=0;strokeWidth=1;shadow=0;" parent="WIyWlLk6GJQsqaUBKTNV-1" vertex="1">
          <mxGeometry x="450" y="190" width="120" height="80" as="geometry" />
        </mxCell>
        <mxCell id="Pkjg8kuU6nvulzSkaxBV-18" value="PVCNotInitialized error" style="whiteSpace=wrap;html=1;rounded=1;glass=0;strokeWidth=1;shadow=0;" parent="WIyWlLk6GJQsqaUBKTNV-1" vertex="1">
          <mxGeometry x="650" y="200" width="120" height="60" as="geometry" />
        </mxCell>
        <mxCell id="Pkjg8kuU6nvulzSkaxBV-19" value="No" style="text;html=1;align=center;verticalAlign=middle;resizable=0;points=[];autosize=1;strokeColor=none;fillColor=none;" parent="WIyWlLk6GJQsqaUBKTNV-1" vertex="1">
          <mxGeometry x="590" y="188" width="40" height="30" as="geometry" />
        </mxCell>
        <mxCell id="Pkjg8kuU6nvulzSkaxBV-20" value="" style="edgeStyle=orthogonalEdgeStyle;rounded=0;orthogonalLoop=1;jettySize=auto;html=1;" parent="WIyWlLk6GJQsqaUBKTNV-1" source="Pkjg8kuU6nvulzSkaxBV-21" target="Pkjg8kuU6nvulzSkaxBV-23" edge="1">
          <mxGeometry relative="1" as="geometry" />
        </mxCell>
        <mxCell id="Pkjg8kuU6nvulzSkaxBV-21" value="&lt;div&gt;Add files from staging area lockfile to status lockfile /directory&lt;br&gt;&lt;/div&gt;&lt;div&gt;&lt;br&gt;&lt;/div&gt;" style="whiteSpace=wrap;html=1;rounded=1;glass=0;strokeWidth=1;shadow=0;" parent="WIyWlLk6GJQsqaUBKTNV-1" vertex="1">
          <mxGeometry x="450" y="500" width="120" height="60" as="geometry" />
        </mxCell>
        <mxCell id="yAVHmVneyYCJ0WxKpsHi-8" value="" style="edgeStyle=orthogonalEdgeStyle;rounded=0;orthogonalLoop=1;jettySize=auto;html=1;" edge="1" parent="WIyWlLk6GJQsqaUBKTNV-1" source="Pkjg8kuU6nvulzSkaxBV-23" target="yAVHmVneyYCJ0WxKpsHi-7">
          <mxGeometry relative="1" as="geometry" />
        </mxCell>
        <mxCell id="Pkjg8kuU6nvulzSkaxBV-23" value="&lt;div&gt;delete files from staging area that has been added to status&lt;/div&gt;" style="whiteSpace=wrap;html=1;rounded=1;glass=0;strokeWidth=1;shadow=0;" parent="WIyWlLk6GJQsqaUBKTNV-1" vertex="1">
          <mxGeometry x="450" y="610" width="120" height="80" as="geometry" />
        </mxCell>
        <mxCell id="yAVHmVneyYCJ0WxKpsHi-2" value="" style="edgeStyle=orthogonalEdgeStyle;rounded=0;orthogonalLoop=1;jettySize=auto;html=1;" edge="1" parent="WIyWlLk6GJQsqaUBKTNV-1" source="Pkjg8kuU6nvulzSkaxBV-24" target="yAVHmVneyYCJ0WxKpsHi-1">
          <mxGeometry relative="1" as="geometry" />
        </mxCell>
        <mxCell id="Pkjg8kuU6nvulzSkaxBV-24" value="&lt;div&gt;Add files from staging area lockfile to the index directory&lt;br&gt;&lt;/div&gt;" style="whiteSpace=wrap;html=1;rounded=1;glass=0;strokeWidth=1;shadow=0;" parent="WIyWlLk6GJQsqaUBKTNV-1" vertex="1">
          <mxGeometry x="40" y="630" width="120" height="60" as="geometry" />
        </mxCell>
        <mxCell id="yAVHmVneyYCJ0WxKpsHi-4" value="" style="edgeStyle=orthogonalEdgeStyle;rounded=0;orthogonalLoop=1;jettySize=auto;html=1;" edge="1" parent="WIyWlLk6GJQsqaUBKTNV-1" source="yAVHmVneyYCJ0WxKpsHi-1" target="yAVHmVneyYCJ0WxKpsHi-3">
          <mxGeometry relative="1" as="geometry" />
        </mxCell>
        <mxCell id="yAVHmVneyYCJ0WxKpsHi-13" value="" style="edgeStyle=orthogonalEdgeStyle;rounded=0;orthogonalLoop=1;jettySize=auto;html=1;" edge="1" parent="WIyWlLk6GJQsqaUBKTNV-1" source="yAVHmVneyYCJ0WxKpsHi-1" target="yAVHmVneyYCJ0WxKpsHi-12">
          <mxGeometry relative="1" as="geometry" />
        </mxCell>
        <mxCell id="yAVHmVneyYCJ0WxKpsHi-1" value="file has DELETED status?" style="rhombus;whiteSpace=wrap;html=1;rounded=1;glass=0;strokeWidth=1;shadow=0;" vertex="1" parent="WIyWlLk6GJQsqaUBKTNV-1">
          <mxGeometry x="60" y="760" width="80" height="80" as="geometry" />
        </mxCell>
        <mxCell id="yAVHmVneyYCJ0WxKpsHi-3" value="Remove file path from index lockfile" style="whiteSpace=wrap;html=1;rounded=1;glass=0;strokeWidth=1;shadow=0;" vertex="1" parent="WIyWlLk6GJQsqaUBKTNV-1">
          <mxGeometry x="200" y="770" width="120" height="60" as="geometry" />
        </mxCell>
        <mxCell id="yAVHmVneyYCJ0WxKpsHi-5" value="Yes" style="text;html=1;align=center;verticalAlign=middle;resizable=0;points=[];autosize=1;strokeColor=none;fillColor=none;" vertex="1" parent="WIyWlLk6GJQsqaUBKTNV-1">
          <mxGeometry x="140" y="768" width="40" height="30" as="geometry" />
        </mxCell>
        <mxCell id="yAVHmVneyYCJ0WxKpsHi-10" value="" style="edgeStyle=orthogonalEdgeStyle;rounded=0;orthogonalLoop=1;jettySize=auto;html=1;" edge="1" parent="WIyWlLk6GJQsqaUBKTNV-1" source="yAVHmVneyYCJ0WxKpsHi-7" target="yAVHmVneyYCJ0WxKpsHi-9">
          <mxGeometry relative="1" as="geometry" />
        </mxCell>
        <mxCell id="yAVHmVneyYCJ0WxKpsHi-7" value="file had DELETED status?" style="rhombus;whiteSpace=wrap;html=1;rounded=1;glass=0;strokeWidth=1;shadow=0;" vertex="1" parent="WIyWlLk6GJQsqaUBKTNV-1">
          <mxGeometry x="470" y="770" width="80" height="80" as="geometry" />
        </mxCell>
        <mxCell id="yAVHmVneyYCJ0WxKpsHi-9" value="Apend the file path back to index lockfile" style="whiteSpace=wrap;html=1;rounded=1;glass=0;strokeWidth=1;shadow=0;" vertex="1" parent="WIyWlLk6GJQsqaUBKTNV-1">
          <mxGeometry x="610" y="780" width="120" height="60" as="geometry" />
        </mxCell>
        <mxCell id="yAVHmVneyYCJ0WxKpsHi-11" value="Yes" style="text;html=1;align=center;verticalAlign=middle;resizable=0;points=[];autosize=1;strokeColor=none;fillColor=none;" vertex="1" parent="WIyWlLk6GJQsqaUBKTNV-1">
          <mxGeometry x="540" y="778" width="40" height="30" as="geometry" />
        </mxCell>
        <mxCell id="yAVHmVneyYCJ0WxKpsHi-15" value="" style="edgeStyle=orthogonalEdgeStyle;rounded=0;orthogonalLoop=1;jettySize=auto;html=1;" edge="1" parent="WIyWlLk6GJQsqaUBKTNV-1" source="yAVHmVneyYCJ0WxKpsHi-12" target="yAVHmVneyYCJ0WxKpsHi-14">
          <mxGeometry relative="1" as="geometry" />
        </mxCell>
        <mxCell id="yAVHmVneyYCJ0WxKpsHi-17" value="" style="edgeStyle=orthogonalEdgeStyle;rounded=0;orthogonalLoop=1;jettySize=auto;html=1;" edge="1" parent="WIyWlLk6GJQsqaUBKTNV-1" source="yAVHmVneyYCJ0WxKpsHi-12" target="Pkjg8kuU6nvulzSkaxBV-9">
          <mxGeometry relative="1" as="geometry" />
        </mxCell>
        <mxCell id="yAVHmVneyYCJ0WxKpsHi-12" value="file has CREATED status?" style="rhombus;whiteSpace=wrap;html=1;rounded=1;glass=0;strokeWidth=1;shadow=0;" vertex="1" parent="WIyWlLk6GJQsqaUBKTNV-1">
          <mxGeometry x="60" y="920" width="80" height="80" as="geometry" />
        </mxCell>
        <mxCell id="yAVHmVneyYCJ0WxKpsHi-14" value="Append file path to index lockfile" style="whiteSpace=wrap;html=1;rounded=1;glass=0;strokeWidth=1;shadow=0;" vertex="1" parent="WIyWlLk6GJQsqaUBKTNV-1">
          <mxGeometry x="200" y="930" width="120" height="60" as="geometry" />
        </mxCell>
        <mxCell id="yAVHmVneyYCJ0WxKpsHi-18" value="Yes" style="text;html=1;align=center;verticalAlign=middle;resizable=0;points=[];autosize=1;strokeColor=none;fillColor=none;" vertex="1" parent="WIyWlLk6GJQsqaUBKTNV-1">
          <mxGeometry x="150" y="918" width="40" height="30" as="geometry" />
        </mxCell>
        <mxCell id="yAVHmVneyYCJ0WxKpsHi-23" value="" style="edgeStyle=orthogonalEdgeStyle;rounded=0;orthogonalLoop=1;jettySize=auto;html=1;" edge="1" parent="WIyWlLk6GJQsqaUBKTNV-1" source="yAVHmVneyYCJ0WxKpsHi-19" target="yAVHmVneyYCJ0WxKpsHi-22">
          <mxGeometry relative="1" as="geometry" />
        </mxCell>
        <mxCell id="yAVHmVneyYCJ0WxKpsHi-25" value="" style="edgeStyle=orthogonalEdgeStyle;rounded=0;orthogonalLoop=1;jettySize=auto;html=1;" edge="1" parent="WIyWlLk6GJQsqaUBKTNV-1" source="yAVHmVneyYCJ0WxKpsHi-19" target="Pkjg8kuU6nvulzSkaxBV-6">
          <mxGeometry relative="1" as="geometry" />
        </mxCell>
        <mxCell id="yAVHmVneyYCJ0WxKpsHi-19" value="Entered file paths present in status lockfile?" style="rhombus;whiteSpace=wrap;html=1;rounded=1;glass=0;strokeWidth=1;shadow=0;" vertex="1" parent="WIyWlLk6GJQsqaUBKTNV-1">
          <mxGeometry x="20" y="328" width="160" height="90" as="geometry" />
        </mxCell>
        <mxCell id="yAVHmVneyYCJ0WxKpsHi-21" value="Yes" style="text;html=1;align=center;verticalAlign=middle;resizable=0;points=[];autosize=1;strokeColor=none;fillColor=none;" vertex="1" parent="WIyWlLk6GJQsqaUBKTNV-1">
          <mxGeometry x="120" y="278" width="40" height="30" as="geometry" />
        </mxCell>
        <mxCell id="yAVHmVneyYCJ0WxKpsHi-22" value="PVCNotMatchedAnyFIles error" style="whiteSpace=wrap;html=1;rounded=1;glass=0;strokeWidth=1;shadow=0;" vertex="1" parent="WIyWlLk6GJQsqaUBKTNV-1">
          <mxGeometry x="260" y="344.5" width="140" height="57" as="geometry" />
        </mxCell>
        <mxCell id="yAVHmVneyYCJ0WxKpsHi-24" value="No" style="text;html=1;align=center;verticalAlign=middle;resizable=0;points=[];autosize=1;strokeColor=none;fillColor=none;" vertex="1" parent="WIyWlLk6GJQsqaUBKTNV-1">
          <mxGeometry x="200" y="338" width="40" height="30" as="geometry" />
        </mxCell>
        <mxCell id="yAVHmVneyYCJ0WxKpsHi-26" value="Yes" style="text;html=1;align=center;verticalAlign=middle;resizable=0;points=[];autosize=1;strokeColor=none;fillColor=none;" vertex="1" parent="WIyWlLk6GJQsqaUBKTNV-1">
          <mxGeometry x="100" y="428" width="40" height="30" as="geometry" />
        </mxCell>
        <mxCell id="yAVHmVneyYCJ0WxKpsHi-31" value="" style="edgeStyle=orthogonalEdgeStyle;rounded=0;orthogonalLoop=1;jettySize=auto;html=1;" edge="1" parent="WIyWlLk6GJQsqaUBKTNV-1" source="yAVHmVneyYCJ0WxKpsHi-27" target="yAVHmVneyYCJ0WxKpsHi-30">
          <mxGeometry relative="1" as="geometry" />
        </mxCell>
        <mxCell id="yAVHmVneyYCJ0WxKpsHi-33" value="" style="edgeStyle=orthogonalEdgeStyle;rounded=0;orthogonalLoop=1;jettySize=auto;html=1;" edge="1" parent="WIyWlLk6GJQsqaUBKTNV-1" source="yAVHmVneyYCJ0WxKpsHi-27" target="Pkjg8kuU6nvulzSkaxBV-21">
          <mxGeometry relative="1" as="geometry" />
        </mxCell>
        <mxCell id="yAVHmVneyYCJ0WxKpsHi-27" value="Entered file paths are present in staging lockfile?" style="rhombus;whiteSpace=wrap;html=1;rounded=1;glass=0;strokeWidth=1;shadow=0;" vertex="1" parent="WIyWlLk6GJQsqaUBKTNV-1">
          <mxGeometry x="460" y="338" width="200" height="80" as="geometry" />
        </mxCell>
        <mxCell id="yAVHmVneyYCJ0WxKpsHi-29" value="Yes" style="text;html=1;align=center;verticalAlign=middle;resizable=0;points=[];autosize=1;strokeColor=none;fillColor=none;" vertex="1" parent="WIyWlLk6GJQsqaUBKTNV-1">
          <mxGeometry x="560" y="268" width="40" height="30" as="geometry" />
        </mxCell>
        <mxCell id="yAVHmVneyYCJ0WxKpsHi-30" value="PVCNotMatchedAnyFIles error" style="whiteSpace=wrap;html=1;rounded=1;glass=0;strokeWidth=1;shadow=0;" vertex="1" parent="WIyWlLk6GJQsqaUBKTNV-1">
          <mxGeometry x="780" y="348" width="150" height="60" as="geometry" />
        </mxCell>
        <mxCell id="yAVHmVneyYCJ0WxKpsHi-32" value="No" style="text;html=1;align=center;verticalAlign=middle;resizable=0;points=[];autosize=1;strokeColor=none;fillColor=none;" vertex="1" parent="WIyWlLk6GJQsqaUBKTNV-1">
          <mxGeometry x="690" y="338" width="40" height="30" as="geometry" />
        </mxCell>
        <mxCell id="yAVHmVneyYCJ0WxKpsHi-34" value="Yes" style="text;html=1;align=center;verticalAlign=middle;resizable=0;points=[];autosize=1;strokeColor=none;fillColor=none;" vertex="1" parent="WIyWlLk6GJQsqaUBKTNV-1">
          <mxGeometry x="580" y="418" width="40" height="30" as="geometry" />
        </mxCell>
      </root>
    </mxGraphModel>
  </diagram>
</mxfile>
